<?xml version="1.0" encoding="utf-8"?>
<!-- Generator: Adobe Illustrator 24.1.2, SVG Export Plug-In . SVG Version: 6.00 Build 0)  -->
<svg version="1.1" id="圖層_1" xmlns="http://www.w3.org/2000/svg" xmlns:xlink="http://www.w3.org/1999/xlink" x="0px" y="0px"
	 viewBox="0 0 1366 768" style="enable-background:new 0 0 1366 768;" xml:space="preserve">
<g>
	<path d="M840.75,165.62c35.57,0,64.5,28.93,64.5,64.5v373h-444v-373c0-35.57,28.93-64.5,64.5-64.5s64.5,28.93,64.5,64.5v64v1h1h184
		h1v-1v-64C776.25,194.55,805.18,165.62,840.75,165.62 M683.75,574.12c42.55,0,82.56-12.24,112.67-34.46
		c30.2-22.29,46.83-51.96,46.83-83.54s-16.63-61.25-46.83-83.54c-30.11-22.22-70.12-34.46-112.67-34.46
		c-42.55,0-82.56,12.24-112.67,34.46c-30.2,22.29-46.83,51.96-46.83,83.54s16.63,61.25,46.83,83.54
		C601.19,561.88,641.2,574.12,683.75,574.12 M840.75,164.62c-36.18,0-65.5,29.32-65.5,65.5v64h-184v-64
		c0-36.18-29.33-65.5-65.5-65.5c-36.18,0-65.5,29.32-65.5,65.5v374h446v-374C906.25,193.94,876.92,164.62,840.75,164.62
		L840.75,164.62z M683.75,573.12c-87.54,0-158.5-52.38-158.5-117s70.96-117,158.5-117c87.53,0,158.5,52.38,158.5,117
		S771.28,573.12,683.75,573.12L683.75,573.12z"/>
</g>
</svg>
